<svg xmlns="http://www.w3.org/2000/svg" width="40" height="40" fill="none" viewBox="0 0 40 40"><g clip-path="url(#a)"><path fill="#30BF39" d="M20 39.375c10.7 0 19.375-8.674 19.375-19.375C39.375 9.3 30.701.625 20 .625 9.3.625.625 9.299.625 20 .625 30.7 9.299 39.375 20 39.375"/><path fill="#fff" d="M25.875 21.751c-.25-.125-1.563-.875-1.813-.937-.25-.125-.437-.125-.625.125-.187.25-.75.875-.875 1-.187.187-.312.187-.562.062s-1.125-.437-2.125-1.437c-.75-.75-1.313-1.625-1.438-1.938-.125-.25 0-.437.125-.562s.25-.313.438-.438c.187-.125.187-.25.312-.437.125-.188.063-.313 0-.5-.062-.188-.562-1.5-.75-2.063-.187-.562-.437-.437-.562-.5-.188 0-.313-.062-.5-.062-.25 0-.563.124-.75.312-.25.25-1 .875-1 2.188 0 1.312.875 2.687 1 2.812.125.188 1.75 3.063 4.437 4.25 2.688 1.188 2.688.813 3.188.813S26 23.814 26.25 23.25c.25-.625.25-1.187.187-1.25-.125 0-.312-.062-.562-.25m-5 6.438c-1.75 0-3.375-.5-4.813-1.438l-3.375 1.063 1.125-3.25c-1.062-1.5-1.687-3.313-1.687-5.188a8.8 8.8 0 0 1 8.812-8.813c4.875 0 8.75 3.938 8.75 8.813a8.8 8.8 0 0 1-8.812 8.813m0-19.376c-5.813 0-10.563 4.75-10.563 10.563 0 1.938.5 3.813 1.5 5.438L9.875 30.5l5.875-1.875c1.562.875 3.312 1.313 5.125 1.313 5.812 0 10.562-4.75 10.562-10.563S26.75 8.813 20.875 8.813"/></g><defs><clipPath id="a"><path fill="#fff" d="M0 0h40v40H0z"/></clipPath></defs></svg>